<?xml version="1.0" ?><!DOCTYPE svg  PUBLIC '-//W3C//DTD SVG 1.1//EN'  'http://www.w3.org/Graphics/SVG/1.1/DTD/svg11.dtd'><svg height="6.82666in" style="shape-rendering:geometricPrecision; text-rendering:geometricPrecision; image-rendering:optimizeQuality; fill-rule:evenodd; clip-rule:evenodd" viewBox="0 0 6.82666 6.82666" width="6.82666in" xml:space="preserve" xmlns="http://www.w3.org/2000/svg" xmlns:xlink="http://www.w3.org/1999/xlink"><defs><style type="text/css">
   <![CDATA[
    .fil1 {fill:none}
    .fil0 {fill:black}
   ]]>
  </style></defs><g id="Layer_x0020_1"><path class="fil0" d="M6.01333 1.78674l-0.752795 0 -3.93701e-006 0 0 3.5975c0,0.337504 0.375917,0.596957 0.664638,0.308236 0.0790748,-0.0790748 0.128161,-0.188189 0.128161,-0.308236l0 -3.5575c0,-0.0220906 -0.0179094,-0.04 -0.04,-0.04z"/><path class="fil1" d="M5.61625 5.74063l4.33071e-005 0c-0.0977165,-0.000177165 -0.186567,-0.040252 -0.251035,-0.10472 -0.0646102,-0.0646102 -0.10472,-0.153709 -0.10472,-0.251677l0 -3.5175 0.712795 0 0 3.5175c0,0.0979685 -0.0401102,0.187067 -0.10472,0.251677 -0.0646102,0.0646102 -0.153709,0.10472 -0.251677,0.10472l-4.33071e-005 0 -4.33071e-005 0 -4.33071e-005 0 -7.87402e-006 0m-0.000503937 0l4.33071e-005 0 4.33071e-005 0 4.33071e-005 0 3.93701e-005 0 4.33071e-005 0 4.33071e-005 0 4.33071e-005 0 4.33071e-005 0 4.33071e-005 0 4.33071e-005 0 4.33071e-005 0 3.93701e-005 0 4.33071e-005 0 4.33071e-005 0 4.33071e-005 0m-0.000641732 0l-4.33071e-005 0m0 0.0799961l-0.00398819 -2.3622e-005 -0.000944882 -7.87402e-006 -0.00057874 -7.87402e-006c-0.00144488,-1.5748e-005 -0.00288583,-4.72441e-005 -0.00432677,-8.26772e-005l-0.000248031 -7.87402e-006 -0.00187795 -5.51181e-005 -0.00337008 -0.000110236 -0.00155118 -5.90551e-005 -0.00398819 -0.000177165 -0.00118504 -5.51181e-005 -0.00498031 -0.000287402 -0.000200787 -1.1811e-005 -0.000807087 -5.51181e-005 -0.00420472 -0.000299213 -0.00151181 -0.00011811 -0.00329921 -0.000271654 -0.00201181 -0.000177165 -0.00470866 -0.000452756 -0.000283465 -2.75591e-005c-0.00162992,-0.000165354 -0.00325591,-0.000346457 -0.00488189,-0.000531496 0.00162205,0.000185039 0.00325197,0.000366142 0.00488189,0.000531496m-0.0165866 -0.00203543c-0.00338976,-0.000480315 -0.00676378,-0.00100394 -0.010126,-0.00156299l-0.000413386 -6.69291e-005 -0.00455118 -0.000787402 -0.000913386 -0.000165354 -0.00501575 -0.000933071 -7.87402e-006 0 -0.00499213 -0.000996063 -0.00102756 -0.000216535 -0.00385039 -0.000814961 -0.00124409 -0.000271654 -0.00418898 -0.000948819 -0.000598425 -0.000133858 -0.000472441 -0.000110236c-0.00323228,-0.000755906 -0.00645276,-0.00154724 -0.00965748,-0.00237402l-0.000755906 -0.00019685 -0.00422441 -0.00111811 -0.000858268 -0.000232283 -0.00465354 -0.00129528 -0.000255906 -7.48031e-005 -0.00462205 -0.00135039 -0.00144094 -0.000433071 -0.00312992 -0.000956693 -0.00176378 -0.000547244m-0.0683583 -0.0281024c-0.00288976,-0.00148425 -0.00575591,-0.00300787 -0.0086063,-0.00455512l-0.00126772 -0.000692913 -0.0029252 -0.00161417 -0.00156299 -0.000874016 -0.00399213 -0.00227165 -0.00011811 -6.69291e-005 -0.00351969 -0.00205118 -0.00034252 -0.000204724 -0.0017874 -0.00106299 -0.00246457 -0.00148425 -0.00152362 -0.000929134 -0.0033937 -0.00209449 -0.000492126 -0.00030315 -0.00385039 -0.00244094 -0.000503937 -0.000322835 -0.000602362 -0.000393701 -0.00327165 -0.00212598 -0.0012874 -0.000850394 -0.00279528 -0.00187008 -0.00120472 -0.000811024 -0.00348031 -0.00238189 -0.000370079 -0.000255906 -0.000110236 -7.48031e-005 -0.0032126 -0.00225591 -0.000952756 -0.000677165 -0.000874016 -0.000625984 -0.0029252 -0.00211024 -0.000594488 -0.000429134 -0.000350394 -0.000259843 -4.33071e-005 -3.14961e-005 -0.00371654 -0.00275197 -0.000110236 -8.26772e-005 -0.00362205 -0.00274016 -0.000562992 -0.000429134 -0.000362205 -0.000283465 -0.000232283 -0.000177165 -0.00253937 -0.00197244 -0.00092126 -0.000720472 -9.05512e-005 -7.08661e-005 -0.000826772 -0.000653543 -0.00274016 -0.00218504 -0.000535433 -0.000429134 -0.000374016 -0.00030315 -0.00362205 -0.00295669 -7.08661e-005 -5.90551e-005 -0.00351575 -0.00293701 -0.000507874 -0.000425197 -0.000385827 -0.000326772 -0.00266142 -0.00227953 -0.000885827 -0.00076378 -5.11811e-005 -4.33071e-005 -9.05512e-005 -8.26772e-005 -0.00337008 -0.00294882 -0.000480315 -0.000425197 -0.000393701 -0.000350394 -0.0026063 -0.00234252 -0.000866142 -0.000783465 -3.54331e-005 -3.14961e-005 -0.000826772 -0.000755906 -0.00257874 -0.00237008 -0.000452756 -0.00042126 -0.000401575 -0.000374016 -0.00312992 -0.00295276 -0.000267717 -0.000255906 -1.5748e-005 -1.1811e-005 -0.000259843 -0.000251969 -0.00308661 -0.00297638 -0.000425197 -0.000413386 -0.000409449 -0.000401575 -0.0033189 -0.00328346c-0.0790748,-0.0790748 -0.128161,-0.188189 -0.128161,-0.308236l0 -3.41267 0 -0.144835c0,-0.0220906 0.0179094,-0.04 0.04,-0.04l0.04 0 0.752795 0c0.0220906,0 0.04,0.0179094 0.04,0.04l0 3.5575c0,0.120047 -0.0490866,0.229161 -0.128161,0.308236 -0.0790748,0.0790748 -0.188189,0.128161 -0.308236,0.128161l-4.33071e-005 0 -4.33071e-005 0 -4.33071e-005 0 -7.87402e-006 0 -3.14961e-005 -3.93701e-006 -4.33071e-005 0 -4.33071e-005 0 -4.33071e-005 0 -4.33071e-005 0 -4.33071e-005 0 -4.33071e-005 0 -4.33071e-005 0 -3.93701e-005 0 -4.33071e-005 0 -4.33071e-005 0 -4.33071e-005 0 -4.33071e-005 0m-0.197776 -0.0480118l0.000846457 0.000429134 0.0031811 0.00161417 0.0018622 0.000925197 0.00242126 0.00118898 0.00175984 0.000862205 0.000311024 0.000149606 0.00369291 0.00175591 0.000370079 0.000173228 0.000401575 0.000185039 0.00407087 0.00187795 0.000822835 0.000370079 0.00374016 0.00166929 0.00101575 0.000448819 0.00448425 0.00193701 5.90551e-005 2.75591e-005 0.00451181 0.00188189 0.00104724 0.000429134 0.00352756 0.00142126 0.00126378 0.0005 0.00435433 0.00169291 4.72441e-005 1.9685e-005 0.00435039 0.00163386 0.000637795 0.00023622 0.000744094 0.000267717 0.00394882 0.0014252 0.000712598 0.000251969 0.00438976 0.00152362 0.000397638 0.000133858 0.00475591 0.00159055 0.00019685 6.29921e-005m0.0731969 0.0170039l0.00172047 0.00023622 0.00374016 0.000503937 0.000917323 0.00011811 0.00437008 0.000531496 0.000956693 0.000114173"/><path class="fil0" d="M4.65594 5.12613c0.0220906,0 0.04,0.0179094 0.04,0.04 0,0.0220906 -0.0179094,0.04 -0.04,0.04l-3.32329 0c-0.0220906,0 -0.04,-0.0179094 -0.04,-0.04 0,-0.0220906 0.0179094,-0.04 0.04,-0.04l3.32329 0zm0 -0.629602c0.0220906,0 0.04,0.0179094 0.04,0.04 0,0.0220906 -0.0179094,0.04 -0.04,0.04l-3.32329 0c-0.0220906,0 -0.04,-0.0179094 -0.04,-0.04 0,-0.0220906 0.0179094,-0.04 0.04,-0.04l3.32329 0zm0.524602 0.887709l0 -3.41267 0 -0.144835 0 -0.740705 -4.3272 0 0 4.29166c0,0.099748 0.0408543,0.19048 0.106657,0.256283 0.0658031,0.0658031 0.156535,0.106657 0.256283,0.106657l4.14952 0c-0.020378,-0.0144252 -0.0394803,-0.0305472 -0.0570906,-0.0481575 -0.0790748,-0.0790748 -0.128161,-0.188189 -0.128161,-0.308236zm-1.79539 -2.76441l1.19574 0c0.0220906,0 0.04,0.0179094 0.04,0.04l0 1.19574c0,0.0220906 -0.0179094,0.04 -0.04,0.04l-1.19574 0c-0.0220906,0 -0.04,-0.0179094 -0.04,-0.04l0 -1.19574c0,-0.0220906 0.0179094,-0.04 0.04,-0.04zm-0.552327 1.13601c0,0.0220906 -0.0179094,0.04 -0.04,0.04l-1.38512 0c-0.0220906,0 -0.04,-0.0179094 -0.04,-0.04 0,-0.0220906 0.0179094,-0.04 0.04,-0.04l1.38512 0c0.0220906,0 0.04,0.0179094 0.04,0.04zm0 -0.478496c0,0.0220906 -0.0179094,0.04 -0.04,0.04l-1.38512 0c-0.0220906,0 -0.04,-0.0179094 -0.04,-0.04 0,-0.0220906 0.0179094,-0.04 0.04,-0.04l1.38512 0c0.0220906,0 0.04,0.0179094 0.04,0.04zm1.37547 -1.24456c-0.00797638,0.0221063 -0.0193071,0.0421142 -0.0337205,0.0597441 -0.0145512,0.017626 -0.0314803,0.0325984 -0.0509252,0.045189 -0.0194488,0.0125945 -0.0407165,0.022248 -0.0636614,0.0291024 -0.0229449,0.00685433 -0.0468701,0.0104921 -0.0719134,0.0110512l0 -0.048689c0.0135709,-0.00405512 0.0260236,-0.00923228 0.0373583,-0.0153898 0.0113307,-0.00615354 0.0204252,-0.0141299 0.0274213,-0.024063 0.00699606,-0.00993307 0.0109134,-0.0225276 0.0116102,-0.0377756 0.000283465,-0.0131535 -0.00293701,-0.024626 -0.00937402,-0.0342795 -0.00643307,-0.00965354 -0.0148268,-0.0180472 -0.0251811,-0.0250433 -0.0104961,-0.00713386 -0.0215472,-0.0132913 -0.0331614,-0.0186102 -0.011752,-0.00531496 -0.0226654,-0.0100709 -0.0330157,-0.0144094 -0.0212677,-0.00881496 -0.0418346,-0.0180472 -0.0618425,-0.0277008 -0.0198661,-0.00979528 -0.0384764,-0.0205669 -0.055685,-0.0324606 -0.0170669,-0.0118937 -0.0321772,-0.0256024 -0.0450512,-0.0409921 -0.0130118,-0.0153898 -0.0230827,-0.0331614 -0.0303583,-0.0533071 -0.00727559,-0.0201457 -0.0109134,-0.043374 -0.0110551,-0.0696772 0.000141732,-0.0320394 0.00559843,-0.0607205 0.0163701,-0.086185 0.0107717,-0.0254606 0.0258819,-0.0472874 0.0451929,-0.0654764 0.0194449,-0.018189 0.042252,-0.0323189 0.0684134,-0.042252 0.0261654,-0.0100748 0.0547047,-0.0156732 0.0857677,-0.0167913l0 0.048689c-0.0107756,0.0036378 -0.0207087,0.00867323 -0.0296614,0.0149724 -0.00895669,0.00643307 -0.0160906,0.0141299 -0.0215472,0.0230827 -0.00545669,0.00909449 -0.00825591,0.0193071 -0.0083937,0.0307795 -0.000141732,0.0102165 0.00153937,0.0195906 0.00503543,0.0282638 0.0036378,0.00867323 0.00979528,0.0170709 0.018748,0.025185 0.00895669,0.00797244 0.0214055,0.0162283 0.0374961,0.024622 0.0160906,0.00825591 0.0365157,0.0172087 0.0612835,0.0268622 0.0369331,0.0142717 0.0672953,0.0298031 0.0912205,0.0465906 0.0237835,0.0166496 0.042252,0.0341378 0.0555433,0.0524685 0.0132913,0.0183268 0.0225276,0.0370748 0.0278425,0.0562441 0.0053189,0.0193071 0.00783465,0.0386142 0.00755512,0.0579213 -0.000137795,0.0260236 -0.00419685,0.0502283 -0.012311,0.0723346zm-1.37547 0.766059c0,0.0220906 -0.0179094,0.04 -0.04,0.04l-1.38512 0c-0.0220906,0 -0.04,-0.0179094 -0.04,-0.04 0,-0.0220906 0.0179094,-0.04 0.04,-0.04l1.38512 0c0.0220906,0 0.04,0.0179094 0.04,0.04zm0.79848 -1.12717l-0.0537244 0.213224 -0.0016811 -0.000838583 -0.0235039 -0.0906614 0.0319016 -0.130957c0.00139764,-0.00573622 0.00265748,-0.0114724 0.00391732,-0.0169291 0.00125984,-0.00545669 0.00195669,-0.0113346 0.00195669,-0.0174882 -0.000137795,-0.00867717 -0.00195669,-0.0155315 -0.00545669,-0.0208465 -0.00349606,-0.0053189 -0.00797244,-0.00965354 -0.0131496,-0.0130118 -0.00517717,-0.00335827 -0.0103543,-0.00643701 -0.0156693,-0.00937402 -0.00517717,-0.00279921 -0.00951575,-0.00615748 -0.0131535,-0.00993701 -0.00349606,-0.00377559 -0.00531496,-0.00881102 -0.00545669,-0.0148307 0.000141732,-0.00643307 0.0018189,-0.011189 0.00517717,-0.0144094 0.00321654,-0.00335827 0.00741339,-0.00559449 0.0124528,-0.00671654 0.00489764,-0.00111811 0.00993307,-0.00167717 0.0151102,-0.00153937l0.108291 0c0.00545669,-0.000137795 0.0107717,0.000283465 0.0160906,0.00125984 0.00517323,0.000980315 0.00951181,0.00307874 0.0130118,0.00643701 0.00335433,0.00335827 0.00517323,0.00867323 0.00531496,0.015811 0,0.00601575 -0.0016811,0.0104921 -0.00475591,0.0132913 -0.00307874,0.00279921 -0.00741732,0.00545669 -0.012874,0.00769291 -0.0138504,0.00615748 -0.0247638,0.0135709 -0.0327362,0.0221063 -0.00811811,0.00867717 -0.0144134,0.0186102 -0.0190315,0.0298031 -0.00447638,0.0113307 -0.0085315,0.0239252 -0.0120315,0.0379134zm-0.182161 -0.134315l0.109969 0.418894 -0.0528858 0.209028 -0.0998976 0 -0.10913 -0.404622 0.0570827 -0.223299 0.0948622 0zm-0.221622 0.097378l0.0831102 0.308087 -0.0554055 0.222457 -0.0998976 0 -0.149425 -0.546492c-0.00125984,-0.00531496 -0.00265748,-0.00965354 -0.00391732,-0.0130118 -0.00139764,-0.00335827 -0.00335827,-0.00629528 -0.00587402,-0.00867323 -0.00251969,-0.00237795 -0.00629528,-0.00475591 -0.0111929,-0.00685433 -0.00419685,-0.00196063 -0.00783465,-0.00377953 -0.0107756,-0.00573622 -0.0030748,-0.00210236 -0.00531496,-0.00448031 -0.00699606,-0.00755512 -0.00153543,-0.00294094 -0.00237795,-0.00699606 -0.00237795,-0.0118937 0.000141732,-0.00685433 0.00209843,-0.0121732 0.00573622,-0.0160906 0.0036378,-0.00377559 0.00825591,-0.00643701 0.0138543,-0.00811417 0.00573622,-0.0016811 0.0114724,-0.00265748 0.017626,-0.00307874 0.00601575,-0.00042126 0.0116142,-0.000559055 0.0165118,-0.00042126l0.194756 0c0.00475591,-0.000137795 0.00979134,-0.000137795 0.015248,0 0.00545669,0.000141732 0.0106339,0.00084252 0.0156693,0.00210236 0.00489764,0.00125591 0.00895669,0.00363386 0.0120354,0.00713386 0.00321654,0.00335827 0.00475591,0.00853543 0.0048937,0.0151102 -0.000137795,0.00699606 -0.00209843,0.0121732 -0.00587402,0.015811 -0.00377953,0.0036378 -0.00811417,0.0067126 -0.0130118,0.00923228 -0.00489764,0.00265748 -0.00923622,0.00587795 -0.0130118,0.00979528 -0.0036378,0.00391732 -0.00573622,0.00965354 -0.00587795,0.0172087 0,0.0036378 0.00042126,0.00699606 0.00112205,0.0102126 0.000838583,0.00307874 0.0018189,0.00671654 0.0030748,0.0107717zm-0.398744 0.299689c0.000141732,0.0018189 0.000141732,0.00461811 0.000283465,0.00853543 0,0.00391732 -0.00042126,0.00811417 -0.00140157,0.0124528 -0.000980315,0.00433858 -0.00307874,0.00797638 -0.00629528,0.0110512 -0.00321654,0.00307874 -0.00797638,0.00475984 -0.0144094,0.00489764 -0.00573622,-0.000137795 -0.0103543,-0.00139764 -0.0138543,-0.00405512 -0.00349606,-0.00251969 -0.00615354,-0.00587795 -0.00811417,-0.0100748 -0.00195669,-0.00419685 -0.00349606,-0.00867323 -0.00489764,-0.0135709 -0.00237795,-0.0107756 -0.00601575,-0.0212677 -0.0107717,-0.0313386 -0.00475591,-0.0100748 -0.0109134,-0.0188898 -0.018748,-0.0263071 -0.00783465,-0.00755512 -0.0174882,-0.0130079 -0.0292402,-0.0162283l0 -0.0520472c0.011752,-0.00321654 0.0214055,-0.00867323 0.0292402,-0.0162283 0.00783465,-0.00755512 0.0139921,-0.0163701 0.018748,-0.0264449 0.00475591,-0.0100709 0.0083937,-0.0204252 0.0107717,-0.0311969 0.00140157,-0.00489764 0.00294094,-0.00937402 0.00489764,-0.0135748 0.00196063,-0.00419685 0.00461811,-0.00755512 0.00811417,-0.0100709 0.0035,-0.00265748 0.00811811,-0.00405906 0.0138543,-0.00405906 0.00643307,0.000141732 0.0111929,0.0016811 0.0144094,0.00475591 0.00321654,0.00307874 0.00531496,0.00685827 0.00629528,0.0111929 0.000980315,0.00433858 0.00140157,0.00839764 0.00140157,0.012315 -0.000141732,0.00391732 -0.000141732,0.00685433 -0.000283465,0.00867323l0 0.181323zm-0.145224 -0.397067l0 0.627921 -0.221618 0c-0.000980315,0 -0.00307874,-0.000141732 -0.00629921,-0.000700787 -0.00321654,-0.000417323 -0.0067126,-0.00153937 -0.0104921,-0.00321654 -0.00377559,-0.00167717 -0.00713386,-0.00419685 -0.00993307,-0.00783465 -0.00279921,-0.0035 -0.00419685,-0.00825591 -0.00433858,-0.0142717 0.000141732,-0.00587795 0.0018189,-0.0106339 0.00517717,-0.0144094 0.00335827,-0.00377953 0.00769685,-0.00657874 0.0132913,-0.00825591 0.00965354,-0.00293701 0.0163701,-0.00587795 0.0204291,-0.00895276 0.00405512,-0.00307874 0.00643307,-0.00741732 0.00727559,-0.012874 0.00069685,-0.00545669 0.000976378,-0.0132913 0.000838583,-0.0235039l0 -0.439878c0.000137795,-0.0102165 -0.000141732,-0.0180512 -0.000838583,-0.0235079 -0.00084252,-0.00559449 -0.00322047,-0.00979134 -0.00727559,-0.0128701 -0.00405906,-0.00307874 -0.0107756,-0.00615748 -0.0204291,-0.00895669 -0.00559449,-0.00167717 -0.00993307,-0.00447638 -0.0132913,-0.00825197 -0.00335827,-0.00377953 -0.00503543,-0.00853543 -0.00517717,-0.0144134 0.000141732,-0.00601575 0.00153937,-0.0107717 0.00433858,-0.0144094 0.00279921,-0.00349606 0.00615748,-0.00601575 0.00993307,-0.00769685 0.00377953,-0.00167717 0.00727559,-0.00279528 0.0104921,-0.00321654 0.00322047,-0.000559055 0.0053189,-0.000700787 0.00629921,-0.000700787l0.221618 0zm-0.381961 0.424772l0 0.20315 -0.125079 0 -0.307244 -0.529701c-0.00419685,-0.00783465 -0.00811417,-0.0145512 -0.0116102,-0.0201496 -0.00335827,-0.00559449 -0.00755906,-0.0104921 -0.0125945,-0.0145512 -0.00503543,-0.00405512 -0.0120315,-0.00755512 -0.021126,-0.0106299 -0.00475591,-0.00153937 -0.00909449,-0.00322047 -0.0128701,-0.00517717 -0.00377953,-0.0018189 -0.00671654,-0.00433858 -0.00895669,-0.00769685 -0.00223622,-0.00321654 -0.00335827,-0.00797638 -0.00335827,-0.0139921 0.000279528,-0.00825197 0.00265748,-0.0141299 0.0071378,-0.0177677 0.00461417,-0.0036378 0.0102126,-0.00587402 0.0167874,-0.00671654 0.0065748,-0.000976378 0.012874,-0.00139764 0.0188898,-0.00153937l0.21574 0 0.244283 0.424772zm-0.388669 0.0705157c0.00223622,0.0173465 0.00545669,0.0313386 0.00965354,0.0419724 0.00405512,0.0106339 0.00867323,0.0188858 0.0137087,0.0247638 0.00503937,0.00573622 0.0100748,0.0102126 0.015252,0.0131496 0.00517717,0.00307874 0.00979528,0.00559843 0.0141299,0.00755512 0.00433858,0.00210236 0.00769685,0.00461811 0.0103543,0.00755512 0.00265748,0.00294094 0.00391732,0.00741732 0.00405906,0.0132953 -0.000141732,0.00643307 -0.00196063,0.0113307 -0.00545669,0.0148268 -0.0036378,0.00335827 -0.00783465,0.00573622 -0.012874,0.0071378 -0.00503543,0.00125984 -0.00993307,0.00209843 -0.0145512,0.00223622 -0.00475591,0.000141732 -0.00825197,0.000141732 -0.0107717,0.000141732l-0.0957008 0c-0.00251575,0 -0.00601575,0 -0.0107717,-0.000141732 -0.00461811,-0.000137795 -0.00951181,-0.000976378 -0.0145512,-0.00223622 -0.00503543,-0.00140157 -0.00923228,-0.00377953 -0.0127323,-0.0071378 -0.0036378,-0.00349606 -0.00545669,-0.0083937 -0.00559449,-0.0148268 0.000137795,-0.00587795 0.00139764,-0.0103543 0.00405512,-0.0132953 0.00266142,-0.00293701 0.00601969,-0.00545276 0.0103543,-0.00755512 0.00433858,-0.00195669 0.00909449,-0.00447638 0.0141299,-0.00755512 0.00517717,-0.00293701 0.0102165,-0.00741339 0.015252,-0.0131496 0.00503543,-0.00587795 0.00965354,-0.0141299 0.0137126,-0.0247638 0.00419685,-0.0106339 0.00741339,-0.024626 0.00965354,-0.0419724l0 -0.337465 0.00167717 0 0.0470118 0.0839449 0 0.25352zm2.28502 -0.470102l0 0.143547c0.000141732,0.00657874 -0.00042126,0.012874 -0.0018189,0.0190315 -0.00125984,0.00615354 -0.00391732,0.0111929 -0.00783465,0.0151102 -0.00405906,0.00391732 -0.0100748,0.00601575 -0.0180472,0.00615354 -0.00671654,-0.000137795 -0.0120315,-0.00167717 -0.0162323,-0.00475591 -0.00419685,-0.00307874 -0.00727559,-0.00713386 -0.00951181,-0.0120315 -0.00224016,-0.00489764 -0.0036378,-0.0102126 -0.00447638,-0.0159528 -0.00237795,-0.0156693 -0.00727559,-0.0310591 -0.0145512,-0.0461693 -0.00727559,-0.0149685 -0.0165118,-0.0289606 -0.0277047,-0.0418307 -0.0113307,-0.0130118 -0.024063,-0.0239252 -0.0383346,-0.0330197 -0.0142717,-0.00909449 -0.0296614,-0.0155315 -0.0461693,-0.0191693l0 -0.048689c0.0134291,0.00042126 0.0265827,0.00224016 0.0394528,0.00545669 0.0130118,0.00321654 0.0250472,0.00699606 0.0360984,0.0111929 0.0110512,0.00419685 0.0202874,0.00797638 0.0278425,0.0110512 0.00755512,0.00322047 0.0125906,0.00489764 0.0149685,0.00503937 0.0053189,-0.000141732 0.00951575,-0.0016811 0.0127323,-0.00475591 0.00307874,-0.00294094 0.00587795,-0.00643701 0.00825591,-0.0103543 0.00237795,-0.00391732 0.00517717,-0.00741732 0.00825591,-0.0103543 0.00321654,-0.00307874 0.00741339,-0.00461811 0.0127323,-0.00475591 0.00643307,0.000137795 0.0113307,0.00167717 0.0148307,0.00461417 0.00335433,0.00279921 0.00573622,0.00629921 0.00713386,0.0104961 0.00125984,0.00405512 0.00209843,0.00797244 0.00224016,0.011752 0.000137795,0.00377559 0.000279528,0.0065748 0.000137795,0.0083937zm-1.28941 -0.025185l0 0.170413c0.000137795,0.00153937 -0.000279528,0.00391732 -0.00112205,0.00713386 -0.000976378,0.00307874 -0.00321654,0.00601575 -0.00699213,0.00867717 -0.0036378,0.00265748 -0.00965354,0.00419685 -0.0179094,0.00433465 -0.00685827,-0.000137795 -0.0118937,-0.00195669 -0.0151102,-0.00573622 -0.00307874,-0.00377559 -0.00559843,-0.00881496 -0.00755512,-0.015248 -0.0106339,-0.0341378 -0.0272835,-0.0612835 -0.0496693,-0.0815709 -0.0225276,-0.0202835 -0.0520472,-0.033437 -0.0888425,-0.039315l0 -0.048689 0.187201 0zm-0.589028 0.0742953c-0.00531496,0.00713386 -0.00951181,0.0167874 -0.0128701,0.0292402 -0.00322047,0.0124528 -0.00489764,0.0285433 -0.00503937,0.0484094l0 0.203988 -0.00167717 0 -0.0470118 -0.0847835 0 -0.119205c-0.000137795,-0.0198661 -0.0018189,-0.0359567 -0.00503543,-0.0484094 -0.00335827,-0.0124528 -0.00755512,-0.0221063 -0.0127323,-0.0292402 -0.00531496,-0.0071378 -0.0107717,-0.0124528 -0.0166496,-0.0162323 -0.00587402,-0.00377559 -0.0113307,-0.00699213 -0.0165079,-0.00951181 -0.0053189,-0.00251969 -0.00951575,-0.00559843 -0.0127323,-0.00895276 -0.00335827,-0.00335827 -0.00503543,-0.00811811 -0.00517717,-0.0144134 0.000141732,-0.00587402 0.0016811,-0.0104921 0.00447638,-0.0138504 0.00279921,-0.00335827 0.00629528,-0.00587795 0.0104961,-0.00755512 0.00405512,-0.00167717 0.00811417,-0.00265748 0.0120315,-0.00321654 0.00377559,-0.00042126 0.00685433,-0.000562992 0.00909449,-0.000562992l0.114165 0c0.00224016,0 0.0053189,0.000141732 0.00923622,0.000562992 0.00391732,0.000559055 0.00783465,0.00153937 0.0120315,0.00321654 0.00405512,0.00167717 0.00755512,0.00419685 0.0103543,0.00755512 0.00293701,0.00335827 0.00433465,0.00797638 0.00447638,0.0138504 -0.000141732,0.00629528 -0.0018189,0.0110551 -0.00503937,0.0144134 -0.00335433,0.00335433 -0.00755512,0.00643307 -0.0128701,0.00895276 -0.00517717,0.00251969 -0.0106339,0.00573622 -0.0165079,0.00951181 -0.00587795,0.00377953 -0.0113346,0.00909449 -0.0165118,0.0162323zm1.48207 0.328508c0.00433858,0.00251969 0.00783465,0.00587795 0.0106339,0.0100748 0.00279528,0.00419685 0.00461417,0.00867323 0.00545669,0.0135709 0.00293701,0.0170709 0.00811417,0.0344173 0.015248,0.0520472 0.00727559,0.0176299 0.0165118,0.0344173 0.0278425,0.0502283 0.0111929,0.0156693 0.0243465,0.0291024 0.039315,0.0402953 0.0149724,0.0111929 0.0317598,0.018748 0.0502283,0.0228031l0 0.048689c-0.0180472,-0.000559055 -0.0331575,-0.00237795 -0.0451929,-0.00559449 -0.0120315,-0.00307874 -0.0222441,-0.0065748 -0.0305,-0.0106339 -0.00825197,-0.00391732 -0.0156693,-0.00727559 -0.0223858,-0.0102126 -0.0067126,-0.00293701 -0.0137087,-0.00447638 -0.021126,-0.00461811 -0.0065748,0.000141732 -0.011752,0.00153937 -0.0153898,0.00433858 -0.00377559,0.00265748 -0.00699606,0.00587402 -0.00951181,0.00951181 -0.00251969,0.0036378 -0.0053189,0.00671654 -0.00825591,0.00951575 -0.00293701,0.00279921 -0.00699606,0.00419685 -0.0121732,0.00433465 -0.00643701,-0.000137795 -0.0114724,-0.0018189 -0.0149685,-0.0048937 -0.0036378,-0.00322047 -0.00629921,-0.00685827 -0.00783465,-0.0111929 -0.00153937,-0.00433858 -0.00251969,-0.00825591 -0.00279921,-0.0118937 -0.000279528,-0.0036378 -0.00042126,-0.00601575 -0.00042126,-0.00727559l0 -0.162016c-0.000137795,-0.00601575 0.00042126,-0.0121732 0.0018189,-0.0184685 0.00125984,-0.00629528 0.00377953,-0.0116142 0.00769685,-0.0159488 0.00377559,-0.00433858 0.00965354,-0.00657874 0.0173465,-0.00671654 0.00559843,0.000137795 0.0106339,0.00139764 0.0149724,0.00405512zm-0.887173 0.0572244l0 0.167894 -0.193075 0 0 -0.048689c0.0228031,-0.00293701 0.0435118,-0.00965354 0.0622598,-0.0204252 0.0186063,-0.0106339 0.0348386,-0.0244843 0.0485472,-0.0416969 0.0135709,-0.0172087 0.0242047,-0.0370748 0.0319016,-0.0595984 0.00195669,-0.00433858 0.00391732,-0.00839764 0.00601575,-0.012315 0.00209843,-0.00391732 0.00475591,-0.00727559 0.00783465,-0.00979134 0.00321654,-0.00251969 0.00727559,-0.00377953 0.0121732,-0.00391732 0.0065748,0.000137795 0.011752,0.00139764 0.0151102,0.00391732 0.00349606,0.00265748 0.00587402,0.00559449 0.00713386,0.00909449 0.00125984,0.00349606 0.00196063,0.0067126 0.00209843,0.00965354 0.000141732,0.00293701 0.000141732,0.0048937 0,0.00587402z"/></g><rect class="fil1" height="6.82666" width="6.82666"/></svg>